<svg width="18" height="9" viewBox="0 0 18 9" fill="none" xmlns="http://www.w3.org/2000/svg">
<path d="M17.2581 5.27982L14.2581 8.27981C14.1174 8.42054 13.9265 8.4996 13.7275 8.4996C13.5285 8.4996 13.3376 8.42054 13.1969 8.27981C13.0562 8.13908 12.9771 7.94821 12.9771 7.74919C12.9771 7.55016 13.0562 7.35929 13.1969 7.21856L14.9172 5.49919H1.72754C1.52863 5.49919 1.33786 5.42017 1.19721 5.27952C1.05656 5.13887 0.977539 4.9481 0.977539 4.74919C0.977539 4.55028 1.05656 4.35951 1.19721 4.21886C1.33786 4.07821 1.52863 3.99919 1.72754 3.99919H14.9172L13.1969 2.27982C13.0562 2.13909 12.9771 1.94822 12.9771 1.7492C12.9771 1.55017 13.0562 1.3593 13.1969 1.21857C13.3376 1.07784 13.5285 0.998779 13.7275 0.998779C13.9265 0.998779 14.1174 1.07784 14.2581 1.21857L17.2581 4.21857C17.3279 4.28822 17.3832 4.37094 17.4209 4.46199C17.4587 4.55303 17.4781 4.65063 17.4781 4.74919C17.4781 4.84775 17.4587 4.94535 17.4209 5.03639C17.3832 5.12744 17.3279 5.21016 17.2581 5.27982Z" fill="#CBFA40"/>
</svg>
