<svg width="17" height="8" viewBox="0 0 17 8" fill="none" xmlns="http://www.w3.org/2000/svg">
<path d="M16.7806 4.78012L13.7806 7.78012C13.6399 7.92085 13.449 7.99991 13.25 7.99991C13.051 7.99991 12.8601 7.92085 12.7194 7.78012C12.5786 7.63939 12.4996 7.44851 12.4996 7.24949C12.4996 7.05047 12.5786 6.8596 12.7194 6.71887L14.4397 4.9995H1.25C1.05109 4.9995 0.860322 4.92048 0.71967 4.77983C0.579018 4.63917 0.5 4.44841 0.5 4.2495C0.5 4.05058 0.579018 3.85982 0.71967 3.71917C0.860322 3.57851 1.05109 3.4995 1.25 3.4995H14.4397L12.7194 1.78013C12.5786 1.6394 12.4996 1.44852 12.4996 1.2495C12.4996 1.05048 12.5786 0.859607 12.7194 0.718877C12.8601 0.578146 13.051 0.499084 13.25 0.499084C13.449 0.499084 13.6399 0.578146 13.7806 0.718877L16.7806 3.71887C16.8503 3.78853 16.9057 3.87124 16.9434 3.96229C16.9811 4.05334 17.0006 4.15093 17.0006 4.2495C17.0006 4.34806 16.9811 4.44565 16.9434 4.5367C16.9057 4.62775 16.8503 4.71047 16.7806 4.78012Z" fill="#28505B"/>
</svg>
