<svg width="329" height="103" viewBox="0 0 329 103" fill="none" xmlns="http://www.w3.org/2000/svg">
<path opacity="0.05" d="M179.094 192.272C179.094 266.108 82.4644 310.849 -17.2855 310.849C-117.036 310.849 -226.592 286.371 -232.593 251.749C-236.537 229.038 -206.979 201.81 -171.454 201.81C-81.0994 201.81 -79.4193 295.178 -17.7656 295.178C26.5715 295.178 53.1464 269.313 53.1464 233.581C53.1464 197.848 27.6002 187.199 1.40259 175.667C-25.2408 163.959 -143.165 115.004 -143.165 115.004C-187.776 95.2702 -221.037 61.1026 -221.037 18.7591C-221.037 -41.3242 -137.301 -86.1407 -32.9219 -86.1407C71.4573 -86.1407 154.028 -63.5558 154.028 -26.3602C154.028 -4.48184 136.814 18.5068 106.742 18.5068C45.1568 18.5068 23.9998 -70.4701 -33.3334 -70.4701C-79.0764 -70.4701 -96.3586 -45.6393 -96.3586 -23.1301C-96.3586 6.59613 -73.4185 19.0872 -51.9871 28.4745C-30.5901 37.8617 79.687 83.41 79.687 83.41C124.95 103.093 179.163 132.062 179.163 192.246L179.094 192.272ZM518.395 225.556C508.245 239.031 490.483 254.525 456.638 254.525C416.93 254.525 385.177 224.269 385.177 175.491C385.177 114.045 425.503 77.8079 457.187 64.1812C460.787 62.6419 489.008 49.949 507.628 41.9497L651.818 -21.5151C665.499 -27.4452 671.5 -39.8606 665.602 -50.7114C650.343 -78.8479 603.503 -87.4529 543.358 -87.4529C356.374 -87.4529 245.24 -26.234 245.24 15.5291C245.24 45.533 273.906 61.4812 310.322 61.4812C372.627 61.4812 387.852 6.54565 397.111 -16.7963C403.694 -33.4006 426.806 -69.7383 472.103 -69.7383C514.109 -69.7383 524.053 -48.617 524.053 -22.5245V14.8478C524.053 16.0591 523.161 17.0937 521.858 17.6741L342.761 96.9104C293.314 118.208 228.369 153.41 228.369 212.762C228.369 272.114 289.748 310.823 365.324 310.823C440.899 310.823 494.632 275.621 519.972 251.346C520.384 250.967 521.035 250.664 521.755 250.664C522.99 250.664 524.018 251.396 524.018 252.305V300.982C524.018 303.707 527.036 305.928 530.739 305.928H596.439H744.229H1012.96C1016.08 305.928 1018.58 304.06 1018.58 301.789C1018.58 299.518 1016.05 297.651 1012.96 297.651C973.219 297.651 939.546 271.71 939.546 238.35V-73.1449C939.546 -80.4377 928.71 -84.9547 920.206 -81.1695L823.508 -38.4222C804.443 -29.9939 792.75 -14.828 792.75 1.54922V144.932V237.896C792.75 243.043 791.961 247.863 790.487 252.38C773.685 304.06 689.811 304.212 673.043 252.532C671.603 248.141 670.849 243.447 670.849 238.476L670.917 59.9167C670.917 46.391 650.926 37.9879 635.084 44.8769L553.679 80.8865C535.3 88.8859 524.018 103.446 524.018 119.167V209.431C524.018 215.21 521.927 220.787 518.361 225.531L518.395 225.556ZM866.199 -133.228C914.514 -133.228 953.708 -162.046 953.708 -197.602C953.708 -233.157 914.514 -262 866.199 -262C817.885 -262 778.725 -233.182 778.725 -197.602C778.725 -162.021 817.885 -133.228 866.199 -133.228ZM-270.415 112.505C-270.415 249.428 -393.517 311 -522.173 311C-650.83 311 -774 249.403 -774 112.48C-774 -24.4423 -650.864 -86.0145 -522.208 -86.0145C-393.551 -86.0145 -270.45 -24.4423 -270.45 112.48L-270.415 112.505ZM-431.887 112.505C-431.887 -21.7675 -462.166 -69.2588 -522.208 -69.2588C-582.25 -69.2588 -612.528 -21.7927 -612.528 112.505C-612.528 246.803 -582.215 294.269 -522.208 294.269C-462.2 294.269 -431.887 246.803 -431.887 112.505ZM1447.62 204.435C1447.86 204.031 1448 203.577 1448 203.123C1448 201.255 1445.94 199.766 1443.44 199.766C1442.38 199.766 1441.42 200.019 1440.66 200.473C1425.81 209.557 1379.63 221.619 1328.67 221.619C1257.93 221.619 1136.65 186.291 1136.65 64.7364C1136.65 -22.0703 1173.13 -57.8528 1216.92 -57.8528C1260.71 -57.8528 1295.96 10.2047 1366.56 10.2047C1415.08 10.2047 1430 -13.4149 1430 -35.2427C1430 -55.3798 1410.93 -86.1155 1294.93 -86.1155C1168.81 -86.1155 1016.36 -19.9758 1016.36 118.36C1016.36 256.695 1122.76 310.899 1247.75 310.899C1350.58 310.899 1426.95 239.889 1447.73 204.46L1447.62 204.435Z" fill="black"/>
</svg>
