<svg width="558" height="784" viewBox="0 0 558 784" fill="none" xmlns="http://www.w3.org/2000/svg">
<g clipPath="url(#clip0_2368_839)">
<path opacity="0.25" d="M688.317 466.065C672.655 494.376 645.245 526.928 593.018 526.928C531.743 526.928 482.744 463.361 482.744 360.879C482.744 231.782 544.972 155.649 593.865 127.02C599.421 123.786 642.97 97.1185 671.702 80.312L894.208 -53.0261C915.321 -65.4851 924.581 -91.5695 915.48 -114.367C891.933 -173.481 819.652 -191.56 726.839 -191.56C438.296 -191.56 266.8 -62.9403 266.8 24.803C266.8 87.8404 311.036 121.347 367.231 121.347C463.377 121.347 486.872 5.92896 501.159 -43.1119C511.318 -77.9971 546.983 -154.342 616.883 -154.342C681.703 -154.342 697.048 -109.966 697.048 -55.1468V23.3716C697.048 25.9164 695.673 28.0901 693.662 29.3095L417.289 195.783C340.986 240.53 240.766 314.489 240.766 439.185C240.766 563.881 335.483 645.209 452.107 645.209C568.73 645.209 651.647 571.25 690.751 520.248C691.386 519.453 692.392 518.817 693.503 518.817C695.408 518.817 696.995 520.354 696.995 522.263V624.533C696.995 630.259 701.652 634.924 707.367 634.924H808.751H1036.81H1451.51C1456.32 634.924 1460.18 631.001 1460.18 626.229C1460.18 621.458 1456.27 617.535 1451.51 617.535C1390.18 617.535 1338.21 563.033 1338.21 492.944V-161.499C1338.21 -176.821 1321.49 -186.311 1308.37 -178.359L1159.15 -88.5475C1129.73 -70.8398 1111.69 -38.9765 1111.69 -4.56842V296.675V491.99C1111.69 502.805 1110.47 512.932 1108.19 522.422C1082.27 631.001 952.838 631.319 926.963 522.74C924.74 513.515 923.576 503.654 923.576 493.209L923.682 118.06C923.682 89.643 892.832 71.9883 868.386 86.4619L742.767 162.117C714.404 178.924 696.995 209.515 696.995 242.544V432.187C696.995 444.328 693.768 456.044 688.265 466.011L688.317 466.065ZM1225.03 -287.733C1299.59 -287.733 1360.07 -348.278 1360.07 -422.98C1360.07 -497.681 1299.59 -558.279 1225.03 -558.279C1150.47 -558.279 1090.05 -497.734 1090.05 -422.98C1090.05 -348.225 1150.47 -287.733 1225.03 -287.733ZM2122.25 421.689C2122.62 420.841 2122.83 419.887 2122.83 418.932C2122.83 415.009 2119.66 411.881 2115.8 411.881C2114.16 411.881 2112.67 412.411 2111.51 413.366C2088.6 432.452 2017.32 457.794 1938.69 457.794C1829.53 457.794 1642.37 383.57 1642.37 128.186C1642.37 -54.1925 1698.67 -129.371 1766.24 -129.371C1833.81 -129.371 1888.21 13.6164 1997.16 13.6164C2072.03 13.6164 2095.05 -36.0076 2095.05 -81.8674C2095.05 -124.175 2065.63 -188.75 1886.62 -188.75C1692 -188.75 1456.74 -49.7921 1456.74 240.848C1456.74 531.488 1620.94 645.369 1813.81 645.369C1972.5 645.369 2090.34 496.178 2122.41 421.742L2122.25 421.689Z" fill="#BACBFF" fill-opacity="0.5"/>
</g>
<defs>
<clipPath id="clip0_2368_839">
<rect width="695.927" height="818.48" fill="white" transform="translate(0.0371094 -35.2402)"/>
</clipPath>
</defs>
</svg>
