<svg width="183" height="64" viewBox="0 0 183 64" fill="none" xmlns="http://www.w3.org/2000/svg">
<path d="M78.15 50.6154C78.15 58.8423 70.2267 63.8274 62.0476 63.8274C53.8685 63.8274 44.8853 61.1001 44.3904 57.2425C44.0671 54.712 46.4907 51.6782 49.4036 51.6782C56.8123 51.6782 56.9501 62.0814 62.0055 62.0814C65.6409 62.0814 67.82 59.1994 67.82 55.2181C67.82 51.2368 65.7253 50.0503 63.5772 48.7654C61.3925 47.4608 51.7232 42.0061 51.7232 42.0061C48.0653 39.8074 45.338 36.0004 45.338 31.2825C45.338 24.5879 52.204 19.5944 60.7627 19.5944C69.3214 19.5944 76.0919 22.1109 76.0919 26.2552C76.0919 28.6929 74.6804 31.2544 72.2118 31.2544C67.162 31.2544 65.4272 21.3405 60.7261 21.3405C56.9754 21.3405 55.5555 24.1071 55.5555 26.6151C55.5555 29.9273 57.4365 31.319 59.1938 32.3678C60.9483 33.4137 69.9905 38.4888 69.9905 38.4888C73.7019 40.6819 78.1472 43.9096 78.1472 50.6154H78.15ZM105.971 54.324C105.139 55.8254 103.683 57.5518 100.908 57.5518C97.6516 57.5518 95.048 54.1806 95.048 48.7457C95.048 41.8993 98.3545 37.8618 100.953 36.3435C101.248 36.172 103.562 34.8167 105.088 33.9226L116.911 26.9413C118.033 26.2805 118.525 24.8972 118.042 23.6882C116.791 20.5532 112.95 19.5944 108.018 19.5944C92.6862 19.5944 83.5737 26.2693 83.5737 30.9226C83.5737 34.2657 85.9242 36.0426 88.9102 36.0426C94.019 36.0426 95.2673 29.9188 96.0265 27.3209C96.5663 25.4708 98.4614 21.422 102.176 21.422C105.62 21.422 106.435 23.9216 106.435 26.8288V31.0604C106.435 31.1953 106.362 31.3106 106.255 31.3753L91.57 39.9649C87.5156 42.3379 82.1903 46.2855 82.1903 52.8985C82.1903 59.5115 87.2232 63.8246 93.4201 63.8246C99.617 63.8246 104.023 59.9023 106.101 57.1975C106.134 57.1553 106.188 57.1216 106.247 57.1216C106.348 57.1216 106.432 57.2031 106.432 57.3044V62.728C106.432 63.0317 106.68 63.2791 106.984 63.2791H112.371H124.489H146.524C146.78 63.2791 146.985 63.0711 146.985 62.818C146.985 62.565 146.777 62.3569 146.524 62.3569C143.265 62.3569 140.504 59.4665 140.504 55.7495V21.0003C140.504 20.1877 139.616 19.6844 138.918 20.1062L130.989 24.9085C129.426 25.8476 128.467 27.5374 128.467 29.3621V45.3436V55.7017C128.467 56.2753 128.403 56.8123 128.282 57.3156C126.904 63.0739 120.027 63.0908 118.652 57.3325C118.534 56.8433 118.472 56.3203 118.472 55.7664L118.478 35.9358C118.478 34.4287 116.838 33.4924 115.539 34.26L108.865 38.2076C107.357 39.0989 106.432 40.7212 106.432 42.4729V52.5302C106.432 53.174 106.261 53.7954 105.969 54.324H105.971ZM134.49 14.3479C138.452 14.3479 141.665 11.137 141.665 7.17535C141.665 3.21372 138.452 0 134.49 0C130.528 0 127.317 3.21091 127.317 7.17535C127.317 11.1398 130.528 14.3479 134.49 14.3479ZM41.292 41.7278C41.292 56.9838 31.1981 63.8443 20.646 63.8443C10.0938 63.8443 0 56.9838 0 41.7278C0 26.4717 10.0967 19.6113 20.646 19.6113C31.1953 19.6113 41.292 26.4717 41.292 41.7278ZM28.0519 41.7278C28.0519 26.7642 25.5692 21.4754 20.646 21.4754C15.7228 21.4754 13.2401 26.7642 13.2401 41.7278C13.2401 56.6914 15.7256 61.9801 20.646 61.9801C25.5664 61.9801 28.0519 56.6914 28.0519 41.7278ZM182.164 51.9706C182.184 51.9257 182.195 51.8751 182.195 51.8244C182.195 51.6164 182.027 51.4505 181.821 51.4505C181.734 51.4505 181.655 51.4786 181.594 51.5292C180.376 52.5414 176.589 53.8854 172.411 53.8854C166.61 53.8854 156.663 49.9491 156.663 36.4053C156.663 26.7332 159.654 22.7463 163.245 22.7463C166.835 22.7463 169.726 30.3321 175.515 30.3321C179.493 30.3321 180.716 27.7004 180.716 25.2684C180.716 23.0247 179.153 19.6001 169.641 19.6001C159.3 19.6001 146.799 26.9694 146.799 42.3829C146.799 57.7964 155.524 63.8358 165.772 63.8358C174.205 63.8358 180.466 55.9238 182.17 51.9763L182.164 51.9706Z" fill="#28505B"/>
</svg>
