<svg width="17" height="17" viewBox="0 0 17 17" fill="none" xmlns="http://www.w3.org/2000/svg">
<mask id="mask0_2370_1454" style="mask-type:luminance" maskUnits="userSpaceOnUse" x="0" y="0" width="17" height="17">
<path d="M8.5 2.04372C10.6028 2.04372 10.8518 2.0516 11.6823 2.08953C12.4502 2.12456 12.8671 2.25271 13.1446 2.36064C13.5123 2.50359 13.7746 2.67402 14.0502 2.9496C14.3257 3.22518 14.4965 3.48746 14.6391 3.85515C14.747 4.13262 14.8752 4.54958 14.9102 5.31748C14.9481 6.14793 14.956 6.39692 14.956 8.49975C14.956 10.6026 14.9481 10.8515 14.9102 11.682C14.8752 12.4498 14.747 12.8668 14.6391 13.1443C14.4962 13.512 14.3257 13.7743 14.0502 14.0498C13.7746 14.3254 13.5123 14.4962 13.1446 14.6388C12.8671 14.7467 12.4502 14.8749 11.6823 14.9099C10.8519 14.9478 10.6028 14.9557 8.5 14.9557C6.39718 14.9557 6.14825 14.9478 5.31779 14.9099C4.5499 14.8749 4.13294 14.7467 3.85547 14.6388C3.48771 14.4958 3.22549 14.3254 2.94991 14.0498C2.6744 13.7743 2.50359 13.512 2.36095 13.1443C2.25296 12.8668 2.12487 12.4498 2.08984 11.682C2.05198 10.8516 2.04404 10.6025 2.04404 8.49975C2.04404 6.39699 2.05192 6.148 2.08984 5.31748C2.12487 4.54958 2.25302 4.13262 2.36095 3.85515C2.50391 3.4874 2.67433 3.22518 2.94991 2.9496C3.22549 2.67408 3.48778 2.50328 3.85547 2.36064C4.13294 2.25271 4.5499 2.12456 5.31779 2.08953C6.14819 2.05198 6.39724 2.04372 8.5 2.04372ZM8.5 0.625C6.36127 0.625 6.09299 0.634136 5.25309 0.672316C4.41476 0.710496 3.84249 0.84375 3.34161 1.03843C2.82365 1.23979 2.38464 1.50907 1.94682 1.94682C1.50907 2.38464 1.23954 2.82365 1.03843 3.34161C0.843687 3.84255 0.710496 4.41507 0.672316 5.25309C0.634136 6.09306 0.625 6.36133 0.625 8.5C0.625 10.6387 0.634136 10.907 0.672316 11.7469C0.710496 12.5852 0.84375 13.1575 1.03843 13.6584C1.23979 14.1763 1.50907 14.6154 1.94682 15.0532C2.38464 15.491 2.82397 15.7602 3.34161 15.9616C3.84255 16.1563 4.41507 16.2895 5.25309 16.3277C6.09299 16.3659 6.36127 16.375 8.5 16.375C10.6387 16.375 10.907 16.3659 11.7469 16.3277C12.5852 16.2895 13.1575 16.1562 13.6584 15.9616C14.1763 15.7601 14.6154 15.4909 15.0532 15.0532C15.491 14.6154 15.7602 14.176 15.9616 13.6584C16.1563 13.1575 16.2895 12.5849 16.3277 11.7469C16.3659 10.907 16.375 10.6387 16.375 8.5C16.375 6.36127 16.3659 6.09299 16.3277 5.25309C16.2895 4.41476 16.1562 3.84249 15.9616 3.34161C15.7601 2.82365 15.4909 2.38464 15.0532 1.94682C14.6154 1.50907 14.176 1.23979 13.6584 1.03843C13.1575 0.843687 12.5849 0.710496 11.7469 0.672316C10.9071 0.634136 10.6387 0.625 8.5 0.625ZM8.5 4.45615C6.26657 4.45615 4.45615 6.26657 4.45615 8.5C4.45615 10.7334 6.26657 12.5439 8.5 12.5439C10.7334 12.5439 12.5439 10.7334 12.5439 8.5C12.5439 6.26657 10.7334 4.45615 8.5 4.45615ZM8.5 11.1252C7.05034 11.1252 5.87487 9.9501 5.87487 8.50006C5.87487 7.05002 7.05034 5.87494 8.5 5.87494C9.94966 5.87494 11.1251 7.05002 11.1251 8.50006C11.1251 9.9501 9.94966 11.1252 8.5 11.1252ZM12.7036 3.35144C12.1816 3.35144 11.7586 3.77438 11.7586 4.29643C11.7586 4.81848 12.1816 5.24149 12.7036 5.24149C13.2257 5.24149 13.6487 4.81848 13.6487 4.29643C13.6487 3.77438 13.2257 3.35144 12.7036 3.35144Z" fill="white"/>
</mask>
<g mask="url(#mask0_2370_1454)">
<rect x="-3.875" y="-3.125" width="24.5716" height="24.5716" fill="white"/>
</g>
</svg>
