<svg width="1440" height="705" viewBox="0 0 1440 705" fill="none" xmlns="http://www.w3.org/2000/svg">
<path d="M676.107 418.563C676.107 644.581 458.321 781.536 233.502 781.536C8.68311 781.536 -238.239 706.609 -251.841 600.629C-260.729 531.109 -194.11 447.761 -114.044 447.761C89.5995 447.761 93.3864 733.568 232.343 733.568C332.271 733.568 392.166 654.391 392.166 545.013C392.166 435.634 334.59 403.036 275.545 367.736C215.495 331.894 -50.2844 182.039 -50.2844 182.039C-150.831 121.633 -225.796 17.0438 -225.796 -112.573C-225.796 -296.493 -37.0688 -433.68 198.183 -433.68C433.436 -433.68 619.536 -364.546 619.536 -250.687C619.536 -183.716 580.739 -113.346 512.884 -113.346C374.082 -113.346 326.397 -385.711 197.179 -385.711C94.0819 -385.711 55.0536 -309.702 55.0536 -240.8C55.0536 -149.805 106.756 -111.569 155.059 -82.7567C203.284 -54.0215 451.829 85.4054 451.829 85.4054C553.844 145.656 676.03 234.334 676.03 418.563H676.107ZM1440.83 520.449C1417.96 561.698 1377.92 609.126 1301.64 609.126C1212.15 609.126 1140.58 516.509 1140.58 367.195C1140.58 179.104 1231.47 68.1798 1302.88 26.4675C1310.99 21.7556 1374.6 -15.4764 1416.56 -40.0402L1741.54 -231.839C1772.38 -249.992 1785.9 -287.996 1772.61 -321.212C1738.22 -407.34 1632.65 -433.68 1497.09 -433.68C1075.67 -433.68 825.188 -250.301 825.188 -122.461C825.188 -30.6163 889.798 18.2024 971.873 18.2024C1112.3 18.2024 1146.61 -150.037 1167.48 -221.411C1182.32 -272.238 1234.41 -383.471 1336.5 -383.471C1431.17 -383.471 1453.58 -314.8 1453.58 -234.929V-118.676C1453.58 -114.968 1451.57 -111.801 1448.64 -110.024L1044.98 125.959C933.54 191.154 787.165 299.606 787.165 481.286C787.165 662.966 925.503 781.459 1095.84 781.459C1266.17 781.459 1387.27 673.703 1444.39 599.393C1445.31 598.234 1446.78 597.307 1448.41 597.307C1451.19 597.307 1453.51 599.547 1453.51 602.328V751.334C1453.51 759.676 1460.31 766.474 1468.65 766.474H1616.73H1949.82H2555.5C2562.53 766.474 2568.17 760.758 2568.17 753.806C2568.17 746.854 2562.45 741.137 2555.5 741.137C2465.93 741.137 2390.03 661.73 2390.03 559.612V-395.058C2390.03 -417.382 2365.61 -431.208 2346.45 -419.622L2128.5 -287.687C2085.53 -261.888 2059.18 -215.463 2059.18 -165.331V273.729V558.299C2059.18 574.057 2057.4 588.811 2054.08 602.637C2016.21 760.835 1827.17 761.298 1789.38 603.101C1786.14 589.66 1784.44 575.293 1784.44 560.075L1784.59 15.2671C1784.59 -26.1362 1739.53 -51.8588 1703.83 -30.7709L1520.36 77.6809C1478.93 102.168 1453.51 146.738 1453.51 194.861V471.167C1453.51 488.856 1448.79 505.927 1440.75 520.449H1440.83ZM2224.72 -577.819C2333.62 -577.819 2421.95 -666.033 2421.95 -774.871C2421.95 -883.709 2333.62 -972 2224.72 -972C2115.83 -972 2027.57 -883.786 2027.57 -774.871C2027.57 -665.956 2115.83 -577.819 2224.72 -577.819ZM-337.008 174.392C-337.008 593.522 -614.457 782 -904.504 782C-1194.55 782 -1472 593.522 -1472 174.392C-1472 -244.739 -1194.47 -433.217 -904.504 -433.217C-614.535 -433.217 -337.008 -244.739 -337.008 174.392ZM-700.938 174.392C-700.938 -236.706 -769.18 -382.003 -904.504 -382.003C-1039.83 -382.003 -1108.07 -236.706 -1108.07 174.392C-1108.07 585.489 -1039.75 730.787 -904.504 730.787C-769.257 730.787 -700.938 585.489 -700.938 174.392ZM3535.15 455.795C3535.69 454.559 3536 453.168 3536 451.778C3536 446.062 3531.36 441.505 3525.72 441.505C3523.33 441.505 3521.16 442.277 3519.46 443.667C3486 471.475 3381.9 508.398 3267.05 508.398C3107.62 508.398 2834.18 400.256 2834.18 28.1669C2834.18 -237.556 2916.41 -347.089 3015.11 -347.089C3113.8 -347.089 3193.25 -138.682 3352.37 -138.682C3461.73 -138.682 3495.35 -210.983 3495.35 -277.8C3495.35 -339.441 3452.38 -433.526 3190.93 -433.526C2906.68 -433.526 2563.07 -231.067 2563.07 192.39C2563.07 615.846 2802.88 781.768 3084.58 781.768C3316.36 781.768 3488.47 564.401 3535.3 455.949L3535.15 455.795Z" fill="#A6BDC0"/>
</svg>
