<svg width="88" height="30" viewBox="0 0 88 30" fill="none" xmlns="http://www.w3.org/2000/svg">
<path d="M37.7463 23.7839C37.7463 27.6496 33.9194 29.9921 29.9689 29.9921C26.0184 29.9921 21.6795 28.7105 21.4419 26.8979C21.2857 25.7088 22.4563 24.2833 23.8632 24.2833C27.4416 24.2833 27.5081 29.1716 29.9499 29.1716C31.7058 29.1716 32.7583 27.8174 32.7583 25.9466C32.7583 24.0758 31.7465 23.5183 30.709 22.9145C29.6538 22.3015 24.9836 19.7384 24.9836 19.7384C23.2168 18.7052 21.8995 16.9164 21.8995 14.6994C21.8995 11.5537 25.2158 9.20729 29.3496 9.20729C33.4835 9.20729 36.7536 10.3897 36.7536 12.3372C36.7536 13.4826 36.0719 14.6862 34.8809 14.6862C32.4419 14.6862 31.604 10.0277 29.3333 10.0277C27.5217 10.0277 26.8373 11.3278 26.8373 12.5063C26.8373 14.0626 27.7458 14.7166 28.5946 15.2081C29.442 15.6996 33.8094 18.0843 33.8094 18.0843C35.602 19.1148 37.749 20.6315 37.749 23.7825L37.7463 23.7839ZM51.184 25.5265C50.782 26.232 50.0785 27.0432 48.7382 27.0432C47.1656 27.0432 45.908 25.4591 45.908 22.9053C45.908 19.6882 47.5051 17.791 48.7599 17.0776C48.9025 16.997 50.0201 16.3324 50.7575 15.9136L56.468 12.5908C57.0099 12.2804 57.2475 11.6303 57.014 11.0622C56.4096 9.58911 54.5546 9.13859 52.1726 9.13859C44.7673 9.13859 40.3659 12.3438 40.3659 14.5303C40.3659 16.1012 41.5012 16.9362 42.9435 16.9362C45.411 16.9362 46.014 14.06 46.3806 12.8379C46.6414 11.9686 47.5567 10.0661 49.3506 10.0661C51.0142 10.0661 51.408 11.1719 51.408 12.538V14.4946C51.408 14.5581 51.3727 14.6122 51.3211 14.6426L44.2282 18.7911C42.2699 19.9062 39.6978 21.7492 39.6978 24.8567C39.6978 27.9641 42.1286 29.9908 45.1217 29.9908C48.1148 29.9908 50.2428 28.1477 51.2464 26.8767C51.2627 26.8569 51.2885 26.8411 51.317 26.8411C51.3659 26.8411 51.4067 26.8794 51.4067 26.9269V29.4755C51.4067 29.6182 51.5262 29.7344 51.6728 29.7344H54.2748H60.1279H70.7707C70.8943 29.7344 70.9935 29.6367 70.9935 29.5178C70.9935 29.3989 70.893 29.3011 70.7707 29.3011C69.1968 29.3011 67.8632 27.9429 67.8632 26.1963V9.8877C67.8632 9.50588 67.4341 9.26939 67.0973 9.46757L63.2677 11.7056C62.5126 12.1469 62.0495 12.9409 62.0495 13.7984V21.3053V26.1725C62.0495 26.4421 62.0183 26.6944 61.9599 26.9309C61.2944 29.6367 57.9727 29.6446 57.3086 26.9388C57.2516 26.7089 57.2217 26.4632 57.2217 26.2029L57.2244 16.8543C57.2244 16.1461 56.4327 15.7062 55.8053 16.0669L52.5814 17.9522C51.8535 18.371 51.4067 19.1333 51.4067 19.9564V24.6823C51.4067 24.9848 51.3238 25.2768 51.1826 25.5252L51.184 25.5265ZM64.9584 6.74197C66.8719 6.74197 68.4241 5.23319 68.4241 3.37165C68.4241 1.51011 66.8719 0 64.9584 0C63.0449 0 61.4941 1.50879 61.4941 3.37165C61.4941 5.23451 63.0449 6.74197 64.9584 6.74197ZM19.944 19.6076C19.944 26.7763 15.0686 30 9.97333 30C4.87803 30 0 26.775 0 19.6063C0 12.4376 4.87667 9.2139 9.97198 9.2139C15.0673 9.2139 19.9426 12.4376 19.9426 19.6063L19.944 19.6076ZM13.549 19.6076C13.549 12.5776 12.3499 10.0912 9.97198 10.0912C7.59407 10.0912 6.39494 12.5763 6.39494 19.6076C6.39494 26.6389 7.59543 29.1241 9.97198 29.1241C12.3485 29.1241 13.549 26.6389 13.549 19.6076ZM87.9851 24.4207C87.9946 24.3995 88 24.3757 88 24.352C88 24.2542 87.9185 24.1762 87.8194 24.1762C87.7773 24.1762 87.7393 24.1895 87.7094 24.2132C87.1214 24.6889 85.2921 25.3204 83.2741 25.3204C80.4725 25.3204 75.6691 23.4707 75.6691 17.1066C75.6691 12.5618 77.1141 10.6883 78.8483 10.6883C80.5825 10.6883 81.9785 14.2516 84.7747 14.2516C86.6963 14.2516 87.287 13.0149 87.287 11.8721C87.287 10.8178 86.532 9.20861 81.9378 9.20861C76.943 9.20861 70.9052 12.6714 70.9052 19.9141C70.9052 27.1568 75.1191 29.9947 80.0691 29.9947C84.1419 29.9947 87.1662 26.2769 87.9891 24.422L87.9851 24.4207Z" fill="#15535E"/>
</svg>
