<svg width="76" height="28" viewBox="0 0 76 28" fill="none" xmlns="http://www.w3.org/2000/svg">
  <path
    d="M32.4983 21.9989C32.4983 25.418 29.2053 27.4898 25.806 27.4898C22.4067 27.4898 18.6732 26.3564 18.4687 24.7531C18.3343 23.7015 19.3416 22.4406 20.5522 22.4406C23.6314 22.4406 23.6886 26.7642 25.7897 26.7642C27.3006 26.7642 28.2062 25.5664 28.2062 23.9118C28.2062 22.2572 27.3356 21.7641 26.4429 21.23C25.5349 20.6878 21.5163 18.4209 21.5163 18.4209C19.996 17.5071 18.8625 15.9249 18.8625 13.9641C18.8625 11.1819 21.7161 9.10655 25.2732 9.10655C28.8302 9.10655 31.6441 10.1524 31.6441 11.8748C31.6441 12.8879 31.0575 13.9524 30.0326 13.9524C27.9339 13.9524 27.2129 9.8322 25.2591 9.8322C23.7003 9.8322 23.1114 10.982 23.1114 12.0244C23.1114 13.4009 23.8931 13.9793 24.6234 14.414C25.3526 14.8487 29.1107 16.9579 29.1107 16.9579C30.6531 17.8693 32.5006 19.2108 32.5006 21.9978L32.4983 21.9989ZM44.061 23.5402C43.7151 24.1642 43.1098 24.8817 41.9565 24.8817C40.6033 24.8817 39.5212 23.4806 39.5212 21.2219C39.5212 18.3765 40.8954 16.6985 41.9752 16.0675C42.0979 15.9962 43.0596 15.4084 43.6941 15.038L48.6078 12.0992C49.0741 11.8245 49.2786 11.2496 49.0776 10.7472C48.5576 9.44425 46.9614 9.04578 44.9117 9.04578C38.5397 9.04578 34.7524 11.8806 34.7524 13.8146C34.7524 15.2039 35.7293 15.9424 36.9703 15.9424C39.0935 15.9424 39.6124 13.3986 39.9279 12.3177C40.1522 11.5488 40.9398 9.86609 42.4835 9.86609C43.915 9.86609 44.2538 10.8442 44.2538 12.0524V13.783C44.2538 13.8391 44.2235 13.887 44.1791 13.9139L38.0757 17.5831C36.3907 18.5693 34.1775 20.1994 34.1775 22.9478C34.1775 25.6961 36.2692 27.4887 38.8446 27.4887C41.4201 27.4887 43.2512 25.8586 44.1148 24.7344C44.1288 24.7169 44.151 24.7029 44.1756 24.7029C44.2176 24.7029 44.2527 24.7368 44.2527 24.7789V27.0329C44.2527 27.1591 44.3555 27.262 44.4817 27.262H46.7206H51.7571H60.915C61.0213 27.262 61.1066 27.1755 61.1066 27.0703C61.1066 26.9652 61.0201 26.8787 60.915 26.8787C59.5606 26.8787 58.4131 25.6775 58.4131 24.1327V9.70834C58.4131 9.37064 58.0438 9.16147 57.754 9.33675L54.4588 11.3162C53.809 11.7065 53.4106 12.4088 53.4106 13.1672V19.8068V24.1116C53.4106 24.35 53.3837 24.5732 53.3334 24.7824C52.7609 27.1755 49.9026 27.1825 49.3312 24.7894C49.2821 24.586 49.2564 24.3687 49.2564 24.1385L49.2587 15.87C49.2587 15.2437 48.5775 14.8545 48.0376 15.1735L45.2635 16.841C44.6371 17.2115 44.2527 17.8857 44.2527 18.6137V22.7935C44.2527 23.0611 44.1814 23.3194 44.0599 23.539L44.061 23.5402ZM55.9136 6.92607C57.5601 6.92607 58.8957 5.59162 58.8957 3.94516C58.8957 2.2987 57.5601 0.963074 55.9136 0.963074C54.2671 0.963074 52.9326 2.29753 52.9326 3.94516C52.9326 5.59278 54.2671 6.92607 55.9136 6.92607ZM17.1798 18.3052C17.1798 24.6456 12.9847 27.4969 8.60035 27.4969C4.21597 27.4969 0.0185547 24.6445 0.0185547 18.304C0.0185547 11.9636 4.2148 9.11239 8.59918 9.11239C12.9836 9.11239 17.1786 11.9636 17.1786 18.304L17.1798 18.3052ZM11.6771 18.3052C11.6771 12.0875 10.6453 9.88829 8.59918 9.88829C6.55306 9.88829 5.52123 12.0863 5.52123 18.3052C5.52123 24.5241 6.55423 26.7221 8.59918 26.7221C10.6441 26.7221 11.6771 24.5241 11.6771 18.3052ZM75.7274 22.5622C75.7356 22.5435 75.7403 22.5224 75.7403 22.5014C75.7403 22.4149 75.6702 22.346 75.5849 22.346C75.5487 22.346 75.5159 22.3577 75.4902 22.3787C74.9843 22.7994 73.4102 23.3579 71.6738 23.3579C69.2631 23.3579 65.1299 21.722 65.1299 16.0932C65.1299 12.0734 66.3732 10.4165 67.8655 10.4165C69.3577 10.4165 70.559 13.568 72.965 13.568C74.6185 13.568 75.1268 12.4742 75.1268 11.4635C75.1268 10.531 74.4771 9.10772 70.5239 9.10772C66.226 9.10772 61.0307 12.1704 61.0307 18.5763C61.0307 24.9822 64.6566 27.4922 68.916 27.4922C72.4205 27.4922 75.0228 24.2039 75.7309 22.5633L75.7274 22.5622Z"
    fill="#15535E"/>
</svg>
