<svg width="332" height="323" viewBox="0 0 332 323" fill="none" xmlns="http://www.w3.org/2000/svg">
<g clip-path="url(#clip0_1771_2414)">
<path opacity="0.07" d="M703.545 426.837C703.545 555.164 579.96 632.922 452.384 632.922C324.808 632.922 184.689 590.381 177.014 530.209C171.971 490.737 209.774 443.415 255.209 443.415C370.768 443.415 372.917 605.687 451.77 605.687C508.475 605.687 542.463 560.733 542.463 498.631C542.463 436.53 509.791 418.022 476.285 397.979C442.209 377.629 291.39 292.546 291.39 292.546C234.334 258.25 191.794 198.867 191.794 125.274C191.794 20.8503 298.889 -57.0403 432.385 -57.0403C565.882 -57.0403 671.486 -17.788 671.486 46.8576C671.486 84.8819 649.471 124.836 611.009 124.836C532.245 124.836 505.186 -29.8049 431.859 -29.8049C373.356 -29.8049 351.253 13.3507 351.253 52.4714C351.253 104.135 380.592 125.845 408.002 142.16C435.368 158.474 576.407 237.637 576.407 237.637C634.297 271.845 703.632 322.194 703.632 426.793L703.545 426.837ZM1137.5 484.685C1124.51 508.105 1101.8 535.033 1058.51 535.033C1007.73 535.033 967.117 482.448 967.117 397.672C967.117 290.88 1018.69 227.9 1059.21 204.218C1063.82 201.542 1099.91 179.482 1123.73 165.579L1308.14 55.2783C1325.64 44.9718 1333.31 23.394 1325.77 4.5354C1306.25 -44.3655 1246.35 -59.3208 1169.42 -59.3208C930.278 -59.3208 788.142 47.077 788.142 119.661C788.142 171.807 824.805 199.525 871.38 199.525C951.066 199.525 970.538 104.048 982.379 63.4796C990.799 34.6215 1020.36 -28.533 1078.29 -28.533C1132.01 -28.533 1144.73 8.17551 1144.73 53.5239V118.477C1144.73 120.582 1143.59 122.38 1141.93 123.389L912.867 261.1C849.628 298.116 766.565 359.297 766.565 462.449C766.565 565.602 845.067 632.879 941.724 632.879C1038.38 632.879 1107.1 571.698 1139.51 529.507C1140.04 528.849 1140.87 528.323 1141.79 528.323C1143.37 528.323 1144.69 529.595 1144.69 531.174V615.774C1144.69 620.511 1148.55 624.37 1153.28 624.37H1237.31H1426.33H1770.03C1774.02 624.37 1777.22 621.125 1777.22 617.178C1777.22 613.231 1773.97 609.985 1770.03 609.985C1719.2 609.985 1676.13 564.9 1676.13 506.92V-34.4538C1676.13 -47.1285 1662.27 -54.9789 1651.4 -48.4003L1527.72 25.8939C1503.34 40.5422 1488.38 66.9005 1488.38 95.3638V344.561V506.131C1488.38 515.078 1487.38 523.455 1485.49 531.305C1464 621.125 1356.73 621.388 1335.28 531.568C1333.44 523.937 1332.48 515.78 1332.48 507.14L1332.57 196.806C1332.57 173.298 1307 158.694 1286.74 170.667L1182.62 233.251C1159.12 247.154 1144.69 272.459 1144.69 299.783V456.66C1144.69 466.703 1142.01 476.396 1137.45 484.641L1137.5 484.685ZM1582.32 -138.878C1644.12 -138.878 1694.24 -188.963 1694.24 -250.758C1694.24 -312.553 1644.12 -362.682 1582.32 -362.682C1520.53 -362.682 1470.45 -312.597 1470.45 -250.758C1470.45 -188.919 1520.53 -138.878 1582.32 -138.878ZM128.642 288.204C128.642 526.174 -28.8 633.186 -193.346 633.186C-357.893 633.186 -515.422 526.13 -515.422 288.16C-515.422 50.1908 -357.936 -56.821 -193.39 -56.821C-28.8439 -56.821 128.598 50.1908 128.598 288.16L128.642 288.204ZM-77.8745 288.204C-77.8745 54.8397 -116.599 -27.6998 -193.39 -27.6998C-270.181 -27.6998 -308.906 54.7958 -308.906 288.204C-308.906 521.613 -270.137 604.108 -193.39 604.108C-116.643 604.108 -77.8745 521.613 -77.8745 288.204ZM2325.94 447.976C2326.25 447.275 2326.42 446.485 2326.42 445.696C2326.42 442.45 2323.79 439.863 2320.59 439.863C2319.23 439.863 2318 440.301 2317.04 441.091C2298.05 456.879 2238.97 477.843 2173.8 477.843C2083.33 477.843 1928.21 416.443 1928.21 205.182C1928.21 54.3134 1974.88 -7.87625 2030.88 -7.87625C2086.88 -7.87625 2131.97 110.407 2222.26 110.407C2284.32 110.407 2303.4 69.3564 2303.4 31.4199C2303.4 -3.57825 2279.01 -56.9964 2130.65 -56.9964C1969.35 -56.9964 1774.37 57.9535 1774.37 298.379C1774.37 538.805 1910.45 633.01 2070.3 633.01C2201.83 633.01 2299.49 509.596 2326.07 448.02L2325.94 447.976Z" fill="black"/>
</g>
<defs>
<clipPath id="clip0_1771_2414">
<rect width="332" height="323" rx="30" fill="white"/>
</clipPath>
</defs>
</svg>
