<svg width="32" height="32" viewBox="0 0 32 32" fill="none" xmlns="http://www.w3.org/2000/svg">
<g clip-path="url(#clip0_2368_708)">
<rect width="32" height="32" rx="16" fill="#CBFA40"/>
<path fill-rule="evenodd" clip-rule="evenodd" d="M64.9481 44.1614C64.9481 67.692 48.3019 78.2734 30.9045 78.2734C13.5071 78.2734 -3.14844 67.6877 -3.14844 44.157C-3.14844 20.6263 13.5024 10.0449 30.8998 10.0449C48.2972 10.0449 64.9435 20.6263 64.9435 44.157L64.9481 44.1614ZM43.1126 44.1626C43.1126 21.0872 39.0182 12.9257 30.8992 12.9257C22.7801 12.9257 18.6857 21.0829 18.6857 44.1626C18.6857 67.2422 22.7847 75.3994 30.8992 75.3994C39.0136 75.3994 43.1126 67.2422 43.1126 44.1626Z" fill="#EAFF99"/>
<path d="M14.8983 18.4782L14.4698 8.64258H17.4694L17.0817 18.4782H14.8983ZM14.2861 21.6207C14.2861 21.0629 14.4426 20.6412 14.7555 20.3555C15.082 20.0698 15.5037 19.927 16.0206 19.927C16.5376 19.927 16.9457 20.0698 17.245 20.3555C17.5579 20.6412 17.7143 21.0629 17.7143 21.6207C17.7143 22.192 17.5579 22.6273 17.245 22.9266C16.9457 23.2123 16.5376 23.3551 16.0206 23.3551C15.5037 23.3551 15.082 23.2123 14.7555 22.9266C14.4426 22.6273 14.2861 22.192 14.2861 21.6207Z" fill="#15535E"/>
</g>
<defs>
<clipPath id="clip0_2368_708">
<rect width="32" height="32" rx="16" fill="white"/>
</clipPath>
</defs>
</svg>
