<svg width="19" height="16" viewBox="0 0 19 16" fill="none" xmlns="http://www.w3.org/2000/svg">
<path d="M6.50884 15.5556C13.3058 15.5556 17.0222 9.77099 17.0222 4.75764C17.0222 4.59236 17.0222 4.42708 17.0146 4.26968C17.7349 3.7345 18.3632 3.06553 18.8613 2.30212C18.2023 2.60119 17.4897 2.80581 16.7387 2.90025C17.505 2.42804 18.0874 1.68824 18.3632 0.798896C17.6506 1.23176 16.8613 1.54657 16.0184 1.71972C15.3441 0.979912 14.3862 0.523438 13.3211 0.523438C11.2828 0.523438 9.62761 2.22341 9.62761 4.3169C9.62761 4.61597 9.65826 4.90717 9.72723 5.18263C6.65443 5.02522 3.93413 3.51414 2.11037 1.21602C1.79619 1.77481 1.61229 2.42804 1.61229 3.12062C1.61229 4.43495 2.26363 5.59975 3.2598 6.2766C2.65443 6.26085 2.08738 6.08771 1.5893 5.80438C1.5893 5.82012 1.5893 5.83586 1.5893 5.8516C1.5893 7.69324 2.86133 9.22007 4.55481 9.57423C4.2483 9.6608 3.9188 9.70803 3.58163 9.70803C3.34409 9.70803 3.1142 9.68442 2.88432 9.63719C3.35175 11.1483 4.71573 12.2422 6.33259 12.2737C5.06823 13.289 3.47435 13.895 1.74255 13.895C1.4437 13.895 1.15252 13.8793 0.861328 13.8399C2.47819 14.926 4.42455 15.5556 6.50884 15.5556Z" fill="white"/>
</svg>
